<svg aria-hidden="true" style="position: absolute; width: 0; height: 0; overflow: hidden;" version="1.1" xmlns="http://www.w3.org/2000/svg" xmlns:xlink="http://www.w3.org/1999/xlink">
<defs>
<symbol id="icon-facebook" viewBox="0 0 512 512">
    <path d="M469.779 0H110.63a8.017 8.017 0 0 0-8.017 8.017 8.017 8.017 0 0 0 8.017 8.017h359.148c14.441 0 26.188 11.748 26.188 26.188v427.557c0 14.44-11.747 26.188-26.188 26.188H323.875V392.818a8.017 8.017 0 0 0-8.017-8.017 8.017 8.017 0 0 0-8.017 8.017v103.148h-52.376v-188.66a8.017 8.017 0 0 0-8.017-8.017H212.71v-52.376h34.739a8.017 8.017 0 0 0 8.017-8.017v-51.307c0-52.161 42.436-94.597 94.597-94.597h60.393v52.376h-60.393c-23.28 0-42.221 18.941-42.221 42.221v51.307a8.017 8.017 0 0 0 8.017 8.017h94.597v52.376h-94.597a8.017 8.017 0 0 0-8.017 8.017v51.307a8.017 8.017 0 0 0 8.017 8.017 8.017 8.017 0 0 0 8.017-8.017v-43.29h94.597a8.017 8.017 0 0 0 8.017-8.017v-68.409a8.017 8.017 0 0 0-8.017-8.017h-94.597v-43.29c0-14.44 11.747-26.188 26.188-26.188h68.409a8.017 8.017 0 0 0 8.017-8.017V84.977a8.017 8.017 0 0 0-8.017-8.017h-68.409c-61.002 0-110.63 49.629-110.63 110.63v43.29h-34.739a8.017 8.017 0 0 0-8.017 8.017v68.409a8.017 8.017 0 0 0 8.017 8.017h34.739v180.643H42.221c-14.441 0-26.188-11.748-26.188-26.188V42.221c0-14.44 11.747-26.188 26.188-26.188h34.205a8.017 8.017 0 1 0 0-16.033H42.221C18.941 0 0 18.941 0 42.221v427.557C0 493.059 18.941 512 42.221 512h427.557C493.059 512 512 493.059 512 469.779V42.221C512 18.941 493.059 0 469.779 0z"/>
</symbol>
<symbol id="icon-linkedin" viewBox="0 0 512 512">
    <path d="M503.983 92.994A8.017 8.017 0 0 0 512 84.977V42.221C512 18.941 493.059 0 469.779 0H42.221C18.941 0 0 18.941 0 42.221v427.557C0 493.059 18.941 512 42.221 512h427.557C493.059 512 512 493.059 512 469.779V119.182a8.017 8.017 0 0 0-8.017-8.017 8.017 8.017 0 0 0-8.017 8.017v350.597c0 14.44-11.747 26.188-26.188 26.188H42.221c-14.44 0-26.188-11.748-26.188-26.188V42.221c0-14.44 11.748-26.188 26.188-26.188h427.557c14.441 0 26.188 11.748 26.188 26.188v42.756a8.017 8.017 0 0 0 8.017 8.017z"/>
    <path d="M153.386 238.898a8.017 8.017 0 0 0 8.017-8.017v-34.739a8.017 8.017 0 0 0-8.017-8.017H84.977a8.017 8.017 0 0 0-8.017 8.017v230.881a8.017 8.017 0 0 0 8.017 8.017h68.409a8.017 8.017 0 0 0 8.017-8.017V266.154a8.017 8.017 0 0 0-16.034 0v152.852H92.994V204.159h52.376v26.722a8.017 8.017 0 0 0 8.016 8.017zm254.664-28.812c-16.319-13.956-37.454-21.96-57.987-21.96-33.891 0-55.359 11.268-68.944 25.151v-17.134a8.017 8.017 0 0 0-8.017-8.017h-68.409a8.017 8.017 0 0 0-8.017 8.017v230.881a8.017 8.017 0 0 0 8.017 8.017h68.409a8.017 8.017 0 0 0 8.017-8.017V315.858c0-21.457 18.032-34.739 34.739-34.739 20.129 0 34.739 14.61 34.739 34.739v111.165a8.017 8.017 0 0 0 8.017 8.017h68.409a8.017 8.017 0 0 0 8.017-8.017V264.551c0-20.236-9.586-39.579-26.99-54.465zm10.956 208.92H366.63V315.858c0-28.946-21.828-50.772-50.772-50.772-24.418 0-50.772 19.412-50.772 50.772v103.148H212.71V204.159h52.376v34.739c0 3.656 2.573 6.926 6.125 7.789 3.66.888 7.55-.973 9.15-4.385 11.871-25.31 35.323-38.143 69.703-38.143 32.545 0 68.944 25.828 68.944 60.392v154.455zM119.182 76.96c-23.281 0-42.221 18.941-42.221 42.221s18.941 42.221 42.221 42.221 42.221-18.941 42.221-42.221-18.941-42.221-42.221-42.221zm0 68.41c-14.44 0-26.188-11.748-26.188-26.188s11.748-26.188 26.188-26.188 26.188 11.748 26.188 26.188-11.749 26.188-26.188 26.188z"/>
</symbol>
<symbol id="icon-instagram" viewBox="0 0 512 512">
    <path d="M129.707.943C71.453 7.761 22.715 48.764 5.997 105.021.164 124.65.427 117.519.427 256c0 117.636.092 125.538 1.571 133.912 5.438 30.792 19.04 56.94 41.095 78.995 22.055 22.055 48.203 35.657 78.995 41.095 8.374 1.479 16.276 1.571 133.912 1.571 117.886 0 125.524-.09 133.964-1.58 55.438-9.787 100.122-49.456 116.039-103.014 5.833-19.629 5.57-12.498 5.57-150.979 0-117.636-.092-125.538-1.571-133.912-5.393-30.539-18.945-56.732-40.669-78.601-21.774-21.921-46.852-35.178-78.506-41.501C384.229.668 372.39.521 259.84.366 191.787.271 133.227.531 129.707.943m261.546 18.556c12.556 2.852 22.521 6.4 32.937 11.728 35.371 18.093 59.56 49.926 68.349 89.946l1.968 8.96v251.734l-1.968 8.96c-2.809 12.791-6.421 22.874-12.227 34.133-17.941 34.794-49.82 58.868-89.485 67.579l-8.96 1.968H130.133l-8.96-1.974c-52.572-11.581-90.147-49.155-101.708-101.706l-1.972-8.96V130.133l1.972-8.96c7.742-35.192 26.608-63.19 55.628-82.553 16.318-10.888 35.673-18.092 55.467-20.646 3.051-.394 61.035-.648 128.853-.565l123.307.151 8.533 1.939m-254.72 32.138c-.704.145-4.16.73-7.68 1.301-18.524 3.004-37.267 13.199-51.301 27.904-12.674 13.281-21.178 29.637-24.74 47.585-1.758 8.86-1.758 246.286 0 255.146 3.562 17.948 12.066 34.304 24.74 47.585 13.773 14.431 31.461 24.177 50.875 28.03 8.86 1.758 246.286 1.758 255.146 0 19.414-3.853 37.102-13.599 50.875-28.03 12.674-13.281 21.178-29.637 24.74-47.585 1.758-8.86 1.758-246.286 0-255.146-6.672-33.618-31.256-61.624-63.634-72.494-13.173-4.423-6.15-4.197-136.567-4.384-66.646-.096-121.75-.056-122.454.088M385.28 70.61c27.769 7.756 48.741 28.893 56.097 56.537l1.93 7.253v243.2l-1.93 7.253c-7.412 27.856-28.801 49.254-56.524 56.546l-7.253 1.908H134.4l-7.253-1.924c-15.636-4.147-31.544-14.358-41.561-26.676-5.803-7.137-12.585-20.64-14.995-29.854l-1.898-7.253V134.4l1.898-7.253c2.409-9.21 9.192-22.716 14.988-29.845 8.581-10.553 20.159-18.858 33.525-24.048 12.9-5.009 8.72-4.868 139.456-4.703l119.893.152 6.827 1.907m.427 24.004c-7.33 2.412-12.823 7.042-16.325 13.759-1.642 3.151-2.001 5.142-2 11.094.002 6.198.33 7.874 2.26 11.52 2.693 5.086 6.564 8.902 11.798 11.631 5.525 2.88 16.662 2.88 22.187 0 5.234-2.729 9.105-6.545 11.797-11.631 1.93-3.646 2.259-5.322 2.26-11.52.002-5.952-.357-7.943-2-11.094-4.636-8.894-12.117-13.748-21.871-14.19-3.285-.149-6.933.045-8.106.431m-145.724 25.734c-21.104 2.664-43.03 11.01-61.21 23.299-10.138 6.853-28.259 24.971-35.141 35.136-10.365 15.309-17.677 32.69-21.713 51.617-2.768 12.981-2.768 38.219 0 51.2 4.036 18.927 11.348 36.308 21.713 51.617 6.882 10.165 25.003 28.283 35.141 35.136 15.323 10.358 32.838 17.728 51.627 21.722 12.077 2.568 37.189 2.77 49.493.399 18.406-3.546 37.722-11.539 53.165-21.997 10.768-7.292 28.518-25.109 35.508-35.641 10.575-15.934 17.507-32.442 21.515-51.236 2.768-12.981 2.768-38.219 0-51.2-6.565-30.783-21.229-56.257-44.168-76.725-17.442-15.563-40.528-26.973-64.184-31.722-9.607-1.928-32.283-2.8-41.746-1.605m38.141 18.32c24.128 4.703 44.265 15.497 61.981 33.222 17.337 17.347 27.811 36.525 32.907 60.254 2.748 12.796 2.748 34.916 0 47.712-5.096 23.729-15.57 42.907-32.907 60.254-17.812 17.821-37.657 28.42-62.453 33.356-10.411 2.072-32.851 2.081-43.216.017-24.535-4.888-44.802-15.71-62.548-33.401-17.297-17.243-27.797-36.465-32.9-60.226-2.748-12.796-2.748-34.916 0-47.712 3.393-15.798 9.027-29.114 17.985-42.506 18.983-28.38 49.891-47.485 84.52-52.244 7.884-1.083 28.156-.378 36.631 1.274m-37.911 24.793c-10.583 1.997-17.595 4.344-26.654 8.919-46.67 23.573-64.781 80.212-40.655 127.14 10.988 21.375 30.777 38.157 53.656 45.506 11.173 3.589 16.421 4.367 29.44 4.367 17.182 0 29.306-2.88 43.6-10.358 25.315-13.244 42.418-36.264 48.695-65.542 1.414-6.594 1.421-28.347.011-34.986-8.118-38.227-35.602-66.223-72.988-74.348-8.853-1.924-26.727-2.279-35.105-.698m30.731 17.349c24.123 4.979 42.785 19.18 53.392 40.63 6.361 12.863 7.91 19.63 7.91 34.56 0 14.93-1.549 21.697-7.91 34.56-10.68 21.598-29.223 35.629-53.825 40.73-10.019 2.077-23.444 1.692-33.711-.966-15.041-3.895-30.814-13.976-40.562-25.925-5.394-6.611-12.207-20.2-14.639-29.199-2.641-9.771-2.641-28.629 0-38.4 2.527-9.348 9.315-22.723 15.046-29.643 17.929-21.648 47.044-31.973 74.299-26.347" fill-rule="evenodd"/>
</symbol>
<symbol id="icon-ru" viewBox="0 0 32 32">
    <path fill="#f0f0f0" style="fill: var(--color1, #f0f0f0)" d="M32 16c0 8.837-7.163 16-16 16s-16-7.163-16-16c0-8.837 7.163-16 16-16s16 7.163 16 16z"></path>
    <path fill="#0052b4" style="fill: var(--color2, #0052b4)" d="M31.005 21.565c0.643-1.733 0.995-3.608 0.995-5.565s-0.352-3.832-0.995-5.565h-30.010c-0.643 1.733-0.995 3.608-0.995 5.565s0.352 3.832 0.995 5.565l15.005 1.391 15.005-1.391z"></path>
    <path fill="#d80027" style="fill: var(--color3, #d80027)" d="M16 32c6.879 0 12.744-4.342 15.005-10.435h-30.010c2.261 6.093 8.125 10.435 15.005 10.435z"></path>
</symbol>
<symbol id="icon-uk" viewBox="0 0 32 32">
    <path fill="#ffda44" style="fill: var(--color4, #ffda44)" d="M32 16c0 8.837-7.163 16-16 16s-16-7.163-16-16c0-8.837 7.163-16 16-16s16 7.163 16 16z"></path>
    <path fill="#338af3" style="fill: var(--color5, #338af3)" d="M0 16c0-8.836 7.163-16 16-16s16 7.163 16 16z"></path>
</symbol>
<symbol id="icon-close" viewBox="0 0 32 32">
    <path d="M.371 2.165A1.268 1.268 0 0 1 2.164.372l13.835 13.835L29.834.372a1.27 1.27 0 0 1 1.794 1.793L17.792 16l13.835 13.835a1.268 1.268 0 1 1-1.794 1.793L15.998 17.793 2.163 31.628A1.268 1.268 0 0 1 .37 29.835L14.205 16 .37 2.165z"/>
</symbol>

<symbol id="icon-tel" viewBox="0 0 32 32">
    <path d="M16 1.501c7.997 0 14.499 6.506 14.499 14.499 0 7.997-6.506 14.499-14.499 14.499s-14.499-6.502-14.499-14.499c0-7.997 6.502-14.499 14.499-14.499zM16 0.32c-8.659 0-15.68 7.021-15.68 15.68s7.021 15.68 15.68 15.68 15.68-7.021 15.68-15.68-7.021-15.68-15.68-15.68v0z"></path>
    <path d="M17.75 25.552c0 0 0 0 0 0-1.37 0-3.478-0.589-5.77-3.389-0.454-0.464-1.050-1.331-1.811-2.643l-0.019-0.016-0.080-0.157c-0.768-1.341-1.229-2.304-1.405-2.941-2.253-6.006 1.178-8.074 1.325-8.16 0.301-0.176 0.704-0.262 1.197-0.262 0.49 0 1.514 0.118 1.875 0.566 0.125 0.154 0.179 0.346 0.15 0.534 0 0.227 0.141 1.229 0.246 1.968 0.25 1.782 0.285 2.131 0.237 2.349-0.077 0.342-0.371 0.675-1.718 1.472 0.144 0.563 0.73 1.894 1.171 2.778 0.704 1.062 1.446 2.048 1.814 2.406 1.152-0.65 1.597-0.787 1.891-0.787 0.083 0 0.163 0.013 0.24 0.035 0.211 0.067 0.496 0.272 1.907 1.379 0.582 0.458 1.379 1.082 1.578 1.197 0.243 0.096 0.406 0.323 0.438 0.618 0.070 0.646-0.518 2.128-1.325 2.595-0.186 0.106-0.874 0.458-1.942 0.458v0zM11.165 18.877c0.902 1.562 1.408 2.208 1.674 2.474l0.042 0.045c2.006 2.461 3.757 2.979 4.874 2.979v0c0.81 0 1.299-0.269 1.35-0.301 0.304-0.176 0.637-0.893 0.723-1.28-0.262-0.179-0.704-0.518-1.549-1.181-0.522-0.41-1.206-0.947-1.494-1.142-0.154 0.051-0.557 0.221-1.501 0.765-0.106 0.061-0.237 0.090-0.346 0.093-0.272 0-0.781-0.013-2.79-3.056l-0.035-0.061c-1.862-3.699-1.382-3.978-0.998-4.202 0.934-0.541 1.286-0.81 1.414-0.925-0.026-0.349-0.147-1.213-0.24-1.869-0.15-1.062-0.221-1.613-0.246-1.93-0.192-0.058-0.515-0.118-0.858-0.118-0.397 0-0.566 0.080-0.608 0.106-0.112 0.064-2.726 1.648-0.8 6.749l0.019 0.058c0.096 0.365 0.4 1.123 1.296 2.685l0.032 0.032 0.042 0.080z"></path>
    <path d="M24.141 13.069h-2.557c-0.326 0-0.589-0.262-0.589-0.589s0.266-0.589 0.589-0.589h2.557c0.326 0 0.589 0.262 0.589 0.589 0 0.323-0.262 0.589-0.589 0.589v0z"></path>
    <path d="M18.163 13.069h-2.544c-0.326 0-0.589-0.262-0.589-0.589s0.266-0.589 0.589-0.589h2.544c0.326 0 0.589 0.262 0.589 0.589 0.003 0.323-0.262 0.589-0.589 0.589v0z"></path>
    <path d="M19.882 17.213c-0.326 0-0.589-0.262-0.589-0.589v-2.704c0-0.326 0.266-0.589 0.589-0.589 0.326 0 0.589 0.262 0.589 0.589v2.704c0 0.326-0.262 0.589-0.589 0.589v0z"></path>
    <path d="M19.882 11.626c-0.326 0-0.589-0.266-0.589-0.589v-2.704c0-0.326 0.266-0.589 0.589-0.589 0.326 0 0.589 0.262 0.589 0.589v2.704c0 0.323-0.262 0.589-0.589 0.589v0z"></path>
    <path d="M18.022 11.123c-0.099 0-0.202-0.038-0.278-0.115l-1.085-1.085c-0.154-0.154-0.154-0.403 0-0.557s0.403-0.154 0.557 0l1.085 1.085c0.154 0.154 0.154 0.403 0 0.557-0.077 0.077-0.179 0.115-0.278 0.115v0z"></path>
    <path d="M22.848 15.738c-0.099 0-0.202-0.038-0.278-0.115l-1.085-1.085c-0.154-0.154-0.154-0.403 0-0.557s0.403-0.154 0.557 0l1.085 1.085c0.154 0.154 0.154 0.403 0 0.557-0.080 0.077-0.179 0.115-0.278 0.115v0z"></path>
    <path d="M21.952 11.123c-0.099 0-0.202-0.038-0.278-0.115-0.154-0.154-0.154-0.403 0-0.557l1.085-1.085c0.154-0.154 0.403-0.154 0.557 0s0.154 0.403 0 0.557l-1.088 1.085c-0.077 0.077-0.176 0.115-0.275 0.115v0z"></path>
    <path d="M17.078 15.693c-0.099 0-0.202-0.038-0.278-0.115-0.154-0.154-0.154-0.403 0-0.557l1.085-1.085c0.154-0.154 0.403-0.154 0.557 0s0.154 0.403 0 0.557l-1.085 1.085c-0.077 0.077-0.176 0.115-0.278 0.115v0z"></path>
</symbol>
<symbol id="icon-location" viewBox="0 0 25 32">
    <path d="M16.388 30.4c1.642-1.043 3.117-2.308 4.402-3.718 2.792-3.057 4.675-6.793 5.43-10.459 0.749-3.619 0.395-7.165-1.262-9.902-0.471-0.786-1.061-1.504-1.764-2.149-2.014-1.834-4.319-2.708-6.639-2.732-2.438-0.018-4.909 0.898-7.095 2.638-0.931 0.744-1.699 1.6-2.295 2.544-1.535 2.414-2.001 5.411-1.493 8.546 0.513 3.182 2.024 6.509 4.433 9.525 1.675 2.102 3.783 4.053 6.291 5.7l-0.008 0.005zM16.034 5.505c1.834 0 3.499 0.744 4.699 1.949 1.205 1.205 1.949 2.862 1.949 4.699 0 1.834-0.744 3.499-1.949 4.699-1.205 1.205-2.862 1.949-4.699 1.949-1.834 0-3.499-0.744-4.699-1.949-1.205-1.205-1.949-2.862-1.949-4.699 0-1.834 0.744-3.499 1.949-4.699 1.205-1.205 2.862-1.949 4.699-1.949v0zM19.775 8.411c-0.955-0.955-2.284-1.553-3.741-1.553-1.465 0-2.786 0.591-3.741 1.553-0.955 0.955-1.553 2.284-1.553 3.741 0 1.465 0.591 2.786 1.553 3.741 0.955 0.955 2.284 1.553 3.741 1.553 1.465 0 2.786-0.591 3.741-1.553 0.955-0.955 1.553-2.284 1.553-3.741-0.003-1.465-0.591-2.786-1.553-3.741v0zM21.859 27.647c-1.457 1.592-3.145 3.020-5.052 4.178-0.229 0.172-0.554 0.195-0.814 0.029-2.81-1.787-5.164-3.936-7.022-6.267-2.557-3.208-4.173-6.767-4.722-10.196-0.559-3.476-0.036-6.816 1.694-9.543 0.684-1.074 1.553-2.053 2.62-2.898 2.438-1.941 5.229-2.968 8.003-2.95 2.674 0.023 5.313 1.015 7.602 3.104 0.804 0.731 1.475 1.558 2.024 2.466 1.86 3.062 2.261 6.975 1.447 10.929-0.809 3.913-2.81 7.891-5.77 11.135l-0.008 0.013z"></path>
</symbol>


<symbol id="icon-burger" viewBox="0 0 24 24">
    <path d="M3 13h18c0.552 0 1-0.448 1-1s-0.448-1-1-1h-18c-0.552 0-1 0.448-1 1s0.448 1 1 1zM3 7h18c0.552 0 1-0.448 1-1s-0.448-1-1-1h-18c-0.552 0-1 0.448-1 1s0.448 1 1 1zM3 19h18c0.552 0 1-0.448 1-1s-0.448-1-1-1h-18c-0.552 0-1 0.448-1 1s0.448 1 1 1z"></path>
</symbol>

<symbol id="icon-close" xmlns="http://www.w3.org/2000/svg" viewBox="0 0 32 32">
    <path d="M32 3.223L28.777 0 16 12.777 3.223 0 0 3.223 12.777 16 0 28.777 3.223 32 16 19.223 28.777 32 32 28.777 19.223 16 32 3.223z"/>
</symbol>

<symbol id="icon-check" xmlns="http://www.w3.org/2000/svg" viewBox="0 0 32 32">
    <path d="M25 2C12.317 2 2 12.317 2 25s10.317 23 23 23 23-10.317 23-23c0-4.56-1.34-8.81-3.637-12.389l-1.369 1.618A20.846 20.846 0 0 1 46 25c0 11.579-9.421 21-21 21S4 36.579 4 25 13.421 4 25 4c5.443 0 10.394 2.1 14.129 5.51l1.309-1.545A22.912 22.912 0 0 0 25 2zm18.236 5.754-19.322 22.8-8.133-7.585-1.363 1.463 9.666 9.015 20.68-24.4-1.528-1.293z"/>
</symbol>

</defs>
</svg>
